C:\Users\israe\Dropbox\PhDWork\ExperimentalData\subject9\100\P9S100W02_filtered35.mot
nRows=8
nColumns=28

name C:\Users\israe\Dropbox\PhDWork\ExperimentalData\subject9\100\P9S100W02_filtered35.mot
datacolumns 28
datarows 8
range 2.0320000000 2.0390000000
endheader
time	ground_force_1_vx	ground_force_1_vy	ground_force_1_vz	ground_force_1_px	ground_force_1_py	ground_force_1_pz	ground_moment_1_mx	ground_moment_1_my	ground_moment_1_mz	ground_force_2_vx	ground_force_2_vy	ground_force_2_vz	ground_force_2_px	ground_force_2_py	ground_force_2_pz	ground_moment_2_mx	ground_moment_2_my	ground_moment_2_mz	ground_force_3_vx	ground_force_3_vy	ground_force_3_vz	ground_force_3_px	ground_force_3_py	ground_force_3_pz	ground_moment_3_mx	ground_moment_3_my	ground_moment_3_mz
        2.0320000000	       -0.0100052555	        0.0000000000	       -0.0577023003	        0.1988394961	        0.0000558755	       -0.3004071324	        0.0415345136	       -0.0168003242	        0.0573738789	       -0.0000000000	        0.0000000000	        0.0000000000	        0.2029003516	       -0.0000795827	        0.4543649445	       -0.0000000000	       -0.0000000000	        0.0000000000	       -0.0000000000	        0.0000000000	        0.0000000000	        0.2076431971	        0.0000770316	        1.3583900146	        0.0000000000	       -0.0000000000	       -0.0000000000	
        2.0330000000	       -0.0061571133	        0.0000000000	       -0.0441162656	        0.1988394961	        0.0000558755	       -0.3004071324	        0.0307224919	       -0.0128546216	        0.0430408273	       -0.0000000000	        0.0000000000	        0.0000000000	        0.2029003516	       -0.0000795827	        0.4543649445	       -0.0000000000	       -0.0000000000	        0.0000000000	       -0.0000000000	        0.0000000000	        0.0000000000	        0.2076431971	        0.0000770316	        1.3583900146	        0.0000000000	       -0.0000000000	       -0.0000000000	
        2.0340000000	       -0.0031595646	        0.0000000000	       -0.0321307111	        0.1988394961	        0.0000558755	       -0.3004071324	        0.0214590621	       -0.0093710894	        0.0306156933	       -0.0000000000	        0.0000000000	        0.0000000000	        0.2029003516	       -0.0000795827	        0.4543649445	       -0.0000000000	       -0.0000000000	        0.0000000000	       -0.0000000000	        0.0000000000	        0.0000000000	        0.2076431971	        0.0000770316	        1.3583900146	        0.0000000000	       -0.0000000000	       -0.0000000000	
        2.0350000000	       -0.0009271682	        0.0000000000	       -0.0219825700	        0.1988394961	        0.0000558755	       -0.3004071324	        0.0138272192	       -0.0064195548	        0.0202641746	       -0.0000000000	        0.0000000000	        0.0000000000	        0.2029003516	       -0.0000795827	        0.4543649445	       -0.0000000000	       -0.0000000000	        0.0000000000	       -0.0000000000	        0.0000000000	        0.0000000000	        0.2076431971	        0.0000770316	        1.3583900146	        0.0000000000	       -0.0000000000	       -0.0000000000	
        2.0360000000	        0.0006460195	        0.0000000000	       -0.0137174824	        0.1988394961	        0.0000558755	       -0.3004071324	        0.0077810290	       -0.0040140647	        0.0119687609	        0.0000000000	        0.0000000000	        0.0000000000	        0.2029003516	       -0.0000795827	        0.4543649445	       -0.0000000000	       -0.0000000000	        0.0000000000	       -0.0000000000	        0.0000000000	        0.0000000000	        0.2076431971	        0.0000770316	        1.3583900146	        0.0000000000	       -0.0000000000	       -0.0000000000	
        2.0370000000	        0.0016732166	        0.0000000000	       -0.0072484012	        0.1988394961	        0.0000558755	       -0.3004071324	        0.0031899348	       -0.0021299286	        0.0055887005	        0.0000000000	        0.0000000000	        0.0000000000	        0.2029003516	       -0.0000795827	        0.4543649445	       -0.0000000000	       -0.0000000000	        0.0000000000	       -0.0000000000	        0.0000000000	        0.0000000000	        0.2076431971	        0.0000770316	        1.3583900146	        0.0000000000	       -0.0000000000	       -0.0000000000	
        2.0380000000	        0.0022654818	        0.0000000000	       -0.0024036834	        0.1988394961	        0.0000558755	       -0.3004071324	       -0.0001258682	       -0.0007177132	        0.0009084222	        0.0000000000	        0.0000000000	        0.0000000000	        0.2029003516	       -0.0000795827	        0.4543649445	       -0.0000000000	       -0.0000000000	        0.0000000000	       -0.0000000000	        0.0000000000	        0.0000000000	        0.2076431971	        0.0000770316	        1.3583900146	        0.0000000000	       -0.0000000000	       -0.0000000000	
        2.0390000000	        0.0025254479	        0.0187913543	        0.0010349694	        0.1988394961	        0.0000558755	       -0.3004071324	       -0.0023683396	        0.0002857085	       -0.0023249126	        0.0000000000	        0.0000000000	        0.0000000000	        0.2029003516	       -0.0000795827	        0.4543649445	       -0.0000000000	       -0.0000000000	        0.0000000000	       -0.0000000000	        0.0000000000	        0.0000000000	        0.2076431971	        0.0000770316	        1.3583900146	        0.0000000000	       -0.0000000000	       -0.0000000000	
